<svg viewBox="0 0 24 24" fill="none" xmlns="http://www.w3.org/2000/svg">
  <path
    d="M20.0626 7.99149H15.0541V6.81702H20.0626V7.99149ZM11.7506 12.4851C12.1236 12.9957 12.2834 13.6596 12.2834 14.3745C12.2834 14.9872 12.1769 15.4979 11.9105 15.9064C11.6441 16.366 11.3244 16.7234 10.9514 16.9787C10.5251 17.234 10.0989 17.4383 9.56606 17.5915C9.03324 17.7447 8.50041 17.7957 7.96759 17.7957H2V6H7.80775C8.39385 6 8.92667 6.05106 9.40621 6.15319C9.88575 6.25532 10.312 6.40851 10.6317 6.66383C10.9514 6.86808 11.2178 7.17447 11.4309 7.58298C11.6441 7.94043 11.6973 8.4 11.6973 8.9617C11.6973 9.57447 11.5375 10.034 11.2711 10.4426C11.0047 10.8511 10.5784 11.1574 9.99231 11.4128C10.8448 11.617 11.3776 11.9745 11.7506 12.4851ZM4.71739 10.8H7.43477C7.91431 10.8 8.28729 10.6979 8.60698 10.4936C8.92667 10.2894 9.08652 9.93191 9.08652 9.42128C9.08652 9.16596 9.03324 8.91064 8.92667 8.75745C8.82011 8.60426 8.66026 8.45106 8.50041 8.34894C8.34057 8.24681 8.12744 8.19574 7.91431 8.14468C7.70118 8.09362 7.43477 8.09362 7.22164 8.09362H4.6641L4.71739 10.8ZM9.61934 14.2213C9.61934 13.6085 9.45949 13.2 9.08652 12.9447C8.71354 12.6894 8.234 12.5362 7.70118 12.5362H4.77067V15.8043H7.6479C7.91431 15.8043 8.18072 15.8043 8.39385 15.7532C8.66026 15.7021 8.87339 15.6 9.03324 15.4979C9.19308 15.3957 9.35293 15.2426 9.45949 15.0383C9.56606 14.783 9.61934 14.5277 9.61934 14.2213ZM21.9808 14.1191H15.5869C15.5869 14.783 15.8001 15.4468 16.173 15.7532C16.546 16.1106 17.0788 16.2638 17.7715 16.2638C18.251 16.2638 18.6773 16.1617 19.0503 15.9064C19.4232 15.6511 19.6364 15.3957 19.6897 15.1404H21.8209C21.5012 16.1617 20.9684 16.8766 20.2225 17.3362C19.5298 17.7957 18.6773 18 17.6649 18C16.9723 18 16.3329 17.8979 15.7468 17.6936C15.1607 17.4894 14.6811 17.183 14.3082 16.7745C13.9352 16.366 13.6155 15.9064 13.4024 15.3447C13.1892 14.783 13.0827 14.1702 13.0827 13.5064C13.0827 12.8936 13.1892 12.2809 13.4024 11.7191C13.6155 11.1574 13.9352 10.6979 14.3082 10.2894C14.7344 9.88085 15.214 9.57447 15.7468 9.31915C16.2796 9.06383 16.919 8.9617 17.6117 8.9617C18.3576 8.9617 19.0503 9.11489 19.5831 9.37021C20.1692 9.62553 20.5954 10.034 20.9684 10.4936C21.3414 10.9532 21.6078 11.5149 21.7677 12.1277C21.9808 12.7915 22.0341 13.4553 21.9808 14.1191ZM19.5298 12.6383C19.4765 12.0255 19.2634 11.617 18.9437 11.3106C18.6773 11.0043 18.1445 10.8511 17.5584 10.8511C17.1854 10.8511 16.8657 10.9021 16.5993 11.0553C16.3329 11.1574 16.1198 11.3617 15.9599 11.5149C15.8001 11.7191 15.6935 11.9234 15.6402 12.1277C15.5869 12.3319 15.5336 12.5362 15.5336 12.6894H19.5298V12.6383Z"
    fill="currentColor" />
</svg>