<svg width="24" height="24" viewBox="0 0 24 24" fill="none" xmlns="http://www.w3.org/2000/svg">
<g id="bot 1" clip-path="url(#clip0_3374_6065)">
<path id="Vector" d="M17.4402 4.80614H16.8406V3.49587C17.6667 3.20395 18.1625 2.35892 18.0142 1.49522C17.8659 0.6313 17.1171 0 16.2407 0C15.3642 0 14.6154 0.6313 14.4671 1.49522C14.3189 2.35892 14.8146 3.20395 15.6408 3.49587V4.80614H8.44299V3.49587C9.26934 3.20395 9.76489 2.35892 9.61684 1.49522C9.46857 0.6313 8.71976 0 7.84332 0C6.96688 0 6.21784 0.6313 6.06979 1.49522C5.92152 2.35892 6.41707 3.20395 7.24343 3.49587V4.80614H6.64354C4.98797 4.8079 3.64629 6.14958 3.64453 7.80515V18.0019C3.64629 19.6577 4.98797 20.9994 6.64354 21.0012H8.44299V23.4003C8.4432 23.6184 8.5616 23.8192 8.75226 23.9248C8.94293 24.0305 9.17599 24.0243 9.36072 23.9088L14.0135 21.0012H17.4402C19.096 20.9996 20.4379 19.6577 20.4394 18.0019V7.80515C20.4379 6.14958 19.096 4.80768 17.4402 4.80614ZM9.04287 8.40504C10.0362 8.40613 10.8412 9.21119 10.8423 10.2045C10.8423 10.5357 10.5739 10.8042 10.2424 10.8042C9.91119 10.8042 9.64276 10.5357 9.64276 10.2045C9.64276 9.87324 9.37412 9.6046 9.04287 9.6046C8.71163 9.6046 8.44299 9.87324 8.44299 10.2045C8.44299 10.5357 8.17456 10.8042 7.84332 10.8042C7.51207 10.8042 7.24343 10.5357 7.24343 10.2045C7.24452 9.21119 8.04958 8.40613 9.04287 8.40504ZM16.5089 15.8394C15.1129 16.4977 13.5852 16.8296 12.0419 16.8094C10.4986 16.8296 8.97105 16.4979 7.57489 15.8394C7.27857 15.6913 7.15864 15.3309 7.30669 15.0346C7.45496 14.7382 7.8152 14.6181 8.11152 14.7664C10.352 15.8862 13.7324 15.8862 15.9725 14.7664C16.2688 14.6181 16.629 14.7382 16.7773 15.0346C16.9253 15.3309 16.8052 15.6913 16.5089 15.8394ZM16.2407 10.8042C16.0816 10.8044 15.929 10.7411 15.8165 10.6286C15.704 10.5162 15.6408 10.3635 15.6408 10.2045C15.6408 9.87324 15.3724 9.6046 15.0411 9.6046C14.7099 9.6046 14.4412 9.87324 14.4412 10.2045C14.4412 10.5357 14.1728 10.8042 13.8413 10.8042C13.5101 10.8042 13.2417 10.5357 13.2417 10.2045C13.2417 9.21053 14.0471 8.40504 15.0411 8.40504C16.0348 8.40504 16.8406 9.21053 16.8406 10.2045C16.8406 10.3635 16.7775 10.5162 16.6648 10.6286C16.5524 10.7411 16.3997 10.8044 16.2407 10.8042Z" fill="#1A1A1A"/>
<path id="Vector_2" d="M22.2366 9.60449H21.6367V15.6027H22.2366C23.2299 15.6016 24.035 14.7966 24.0361 13.8033V11.4039C24.035 10.4106 23.2299 9.60559 22.2366 9.60449Z" fill="#1A1A1A"/>
<path id="Vector_3" d="M0.0449219 11.4039V13.8033C0.0460202 14.7966 0.851071 15.6016 1.84437 15.6027H2.44426V9.60449H1.84437C0.851071 9.60559 0.0460202 10.4106 0.0449219 11.4039Z" fill="#1A1A1A"/>
</g>
<defs>
<clipPath id="clip0_3374_6065">
<rect width="24" height="24" fill="white"/>
</clipPath>
</defs>
</svg>
