<svg width="16" height="16" viewBox="0 0 16 16" fill="none" xmlns="http://www.w3.org/2000/svg">
<path d="M10.2768 8.31579V6.61866C10.2768 4.71861 10.2768 3.76858 9.72158 3.36957C9.63115 3.30459 9.53293 3.25119 9.42923 3.21062C8.79247 2.96153 7.99511 3.47804 6.4004 4.51105L6.17316 4.65824C5.81707 4.88891 5.63903 5.00424 5.44722 5.0786C5.23169 5.16215 5.0033 5.2077 4.7722 5.21323C4.56654 5.21816 4.35787 5.17996 3.94054 5.10356V5.10356C3.15988 4.96064 2.76955 4.88919 2.46057 4.98275C2.11494 5.08742 1.82654 5.32781 1.66135 5.64895C1.51367 5.93603 1.51367 6.33284 1.51367 7.12648V8.31579" stroke="currentColor" stroke-linecap="round"/>
<path d="M10.2768 7.68421V9.38134C10.2768 11.2814 10.2768 12.2314 9.72158 12.6304C9.63115 12.6954 9.53293 12.7488 9.42923 12.7894C8.79247 13.0385 7.99511 12.522 6.4004 11.489L6.17316 11.3418C5.81707 11.1111 5.63903 10.9958 5.44722 10.9214C5.23169 10.8379 5.0033 10.7923 4.7722 10.7868C4.56654 10.7818 4.35787 10.82 3.94054 10.8964V10.8964C3.15988 11.0394 2.76955 11.1108 2.46057 11.0172C2.11494 10.9126 1.82654 10.6722 1.66135 10.3511C1.51367 10.064 1.51367 9.66716 1.51367 8.87352V7.68421" stroke="currentColor" stroke-linecap="round"/>
<path d="M14.1716 4.60889C14.5912 6.7435 14.5912 9.25605 14.1716 11.3907" stroke="currentColor" stroke-linecap="round"/>
<path d="M12.5231 5.45679C12.9428 7.05775 12.9428 8.94216 12.5231 10.5431" stroke="currentColor" stroke-linecap="round"/>
<path d="M12.5781 3.09399L2.76603 12.9061" stroke="currentColor" stroke-linecap="round" stroke-linejoin="round"/>
</svg>
