<svg viewBox="0 0 16 16" fill="none" xmlns="http://www.w3.org/2000/svg">
<path d="M10.603 8.31579V6.61866C10.603 4.71861 10.603 3.76858 10.0477 3.36957C9.95732 3.30459 9.85911 3.25119 9.7554 3.21062C9.11864 2.96153 8.32128 3.47804 6.72657 4.51105L6.49934 4.65824C6.14325 4.88891 5.9652 5.00424 5.77339 5.0786C5.55786 5.16215 5.32947 5.2077 5.09837 5.21323C4.89271 5.21816 4.68405 5.17996 4.26671 5.10356V5.10356C3.48605 4.96064 3.09572 4.88919 2.78674 4.98275C2.44111 5.08742 2.15271 5.32781 1.98752 5.64895C1.83984 5.93603 1.83984 6.33284 1.83984 7.12648V8.31579" stroke="currentColor" stroke-linecap="round"/>
<path d="M10.603 7.68421V9.38134C10.603 11.2814 10.603 12.2314 10.0477 12.6304C9.95732 12.6954 9.85911 12.7488 9.7554 12.7894C9.11864 13.0385 8.32128 12.522 6.72657 11.489L6.49934 11.3418C6.14325 11.1111 5.9652 10.9958 5.77339 10.9214C5.55786 10.8379 5.32947 10.7923 5.09837 10.7868C4.89271 10.7818 4.68405 10.82 4.26671 10.8964V10.8964C3.48605 11.0394 3.09572 11.1108 2.78674 11.0172C2.44111 10.9126 2.15271 10.6722 1.98752 10.3511C1.83984 10.064 1.83984 9.66716 1.83984 8.87352V7.68421" stroke="currentColor" stroke-linecap="round"/>
<path d="M14.4997 4.60913C14.9194 6.74375 14.9194 9.2563 14.4997 11.3909" stroke="currentColor" stroke-linecap="round"/>
<path d="M12.8513 5.45679C13.2709 7.05775 13.2709 8.94216 12.8513 10.5431" stroke="currentColor" stroke-linecap="round"/>
</svg>
