<svg width="64" height="64" viewBox="0 0 64 64" fill="none" xmlns="http://www.w3.org/2000/svg">
<rect width="64" height="64" rx="16" fill="#E6FE51"/>
<path d="M38.858 23.5454H36.5723V25.8181H38.858V23.5454Z" fill="#1A1A1A"/>
<path d="M36.5709 21.2727H34.2852V23.5454H36.5709V21.2727Z" fill="#1A1A1A"/>
<path d="M36.5709 28.0908H34.2852V30.3635H36.5709V28.0908Z" fill="#1A1A1A"/>
<path d="M36.5709 30.3638H34.2852V32.6365H36.5709V30.3638Z" fill="#1A1A1A"/>
<path d="M36.5709 32.6362H34.2852V34.909H36.5709V32.6362Z" fill="#1A1A1A"/>
<path d="M38.858 32.6365H36.5723V34.9092H38.858V32.6365Z" fill="#1A1A1A"/>
<path d="M41.1431 32.6362H38.8574V34.909H41.1431V32.6362Z" fill="#1A1A1A"/>
<path d="M34.2857 19H32V21.2727H34.2857V19Z" fill="#1A1A1A"/>
<path d="M36.5709 19H34.2852V21.2727H36.5709V19Z" fill="#1A1A1A"/>
<path d="M38.858 19H36.5723V21.2727H38.858V19Z" fill="#1A1A1A"/>
<path d="M41.1431 23.5454H38.8574V25.8181H41.1431V23.5454Z" fill="#1A1A1A"/>
<path d="M45.7134 23.5454H43.4277V25.8181H45.7134V23.5454Z" fill="#1A1A1A"/>
<path d="M45.7134 21.2727H43.4277V23.5454H45.7134V21.2727Z" fill="#1A1A1A"/>
<path d="M48.0006 23.5454H45.7148V25.8181H48.0006V23.5454Z" fill="#1A1A1A"/>
<path d="M36.5709 23.5454H34.2852V25.8181H36.5709V23.5454Z" fill="#1A1A1A"/>
<path d="M34.2857 23.5454H32V25.8181H34.2857V23.5454Z" fill="#1A1A1A"/>
<path d="M38.858 41.7273H36.5723V44H38.858V41.7273Z" fill="#1A1A1A"/>
<path d="M41.1431 41.7273H38.8574V44H41.1431V41.7273Z" fill="#1A1A1A"/>
<path d="M36.5709 41.7273H34.2852V44H36.5709V41.7273Z" fill="#1A1A1A"/>
<path d="M34.2857 41.7273H32V44H34.2857V41.7273Z" fill="#1A1A1A"/>
<path d="M32.0006 41.7273H29.7148V44H32.0006V41.7273Z" fill="#1A1A1A"/>
<path d="M32.0006 23.5454H29.7148V25.8181H32.0006V23.5454Z" fill="#1A1A1A"/>
<path d="M29.7134 39.4546H27.4277V41.7273H29.7134V39.4546Z" fill="#1A1A1A"/>
<path d="M43.4283 25.8184H41.1426V28.0911H43.4283V25.8184Z" fill="#1A1A1A"/>
<path d="M29.7134 25.8181H27.4277V28.0908H29.7134V25.8181Z" fill="#1A1A1A"/>
<path d="M43.4283 39.4546H41.1426V41.7273H43.4283V39.4546Z" fill="#1A1A1A"/>
<path d="M45.7134 28.0908H43.4277V30.3635H45.7134V28.0908Z" fill="#1A1A1A"/>
<path d="M27.4283 28.0908H25.1426V30.3635H27.4283V28.0908Z" fill="#1A1A1A"/>
<path d="M22.8571 28.0908H16V30.3635H22.8571V28.0908Z" fill="#1A1A1A"/>
<path d="M22.8566 32.6362H18.2852V34.909H22.8566V32.6362Z" fill="#1A1A1A"/>
<path d="M22.856 37.1816H20.5703V39.4544H22.856V37.1816Z" fill="#1A1A1A"/>
<path d="M27.4283 30.3638H25.1426V32.6365H27.4283V30.3638Z" fill="#1A1A1A"/>
<path d="M27.4283 32.6362H25.1426V34.909H27.4283V32.6362Z" fill="#1A1A1A"/>
<path d="M27.4283 37.1816H25.1426V39.4544H27.4283V37.1816Z" fill="#1A1A1A"/>
<path d="M27.4283 34.9092H25.1426V37.1819H27.4283V34.9092Z" fill="#1A1A1A"/>
<path d="M45.7134 30.3635H43.4277V32.6363H45.7134V30.3635Z" fill="#1A1A1A"/>
<path d="M45.7134 32.6365H43.4277V34.9092H45.7134V32.6365Z" fill="#1A1A1A"/>
<path d="M45.7134 37.1819H43.4277V39.4546H45.7134V37.1819Z" fill="#1A1A1A"/>
<path d="M45.7134 34.9092H43.4277V37.1819H45.7134V34.9092Z" fill="#1A1A1A"/>
</svg>
