<svg width="64" height="64" viewBox="0 0 64 64" fill="none" xmlns="http://www.w3.org/2000/svg">
<rect width="64" height="64" rx="16" fill="#E6FE51"/>
<path d="M21.6152 33.1499V35.457H23.9229V33.1499H21.6152Z" fill="#1A1A1A"/>
<path d="M23.9238 30.8433V33.1504H26.2315V30.8433H23.9238Z" fill="#1A1A1A"/>
<path d="M19.3086 35.4566V37.7637H21.6163V35.4566H19.3086Z" fill="#1A1A1A"/>
<path d="M19.3086 37.7632V40.0703H21.6163V37.7632H19.3086Z" fill="#1A1A1A"/>
<path d="M21.6152 40.0796V42.3867H23.9229V40.0796H21.6152Z" fill="#1A1A1A"/>
<path d="M19.3086 42.3862V44.6934H21.6163V42.3862H19.3086Z" fill="#1A1A1A"/>
<path d="M17 44.6931V47.0002H19.3077V44.6931H17Z" fill="#1A1A1A"/>
<path d="M23.9238 42.3862V44.6934H26.2315V42.3862H23.9238Z" fill="#1A1A1A"/>
<path d="M26.2305 42.3784V44.6855H28.5382V42.3784H26.2305Z" fill="#1A1A1A"/>
<path d="M28.5391 40.0718V42.3789H30.8468V40.0718H28.5391Z" fill="#1A1A1A"/>
<path d="M30.8457 37.7632V40.0703H33.1534V37.7632H30.8457Z" fill="#1A1A1A"/>
<path d="M28.5391 35.4644V37.7715H30.8468V35.4644H28.5391Z" fill="#1A1A1A"/>
<path d="M26.2305 33.1577V35.4648H28.5382V33.1577H26.2305Z" fill="#1A1A1A"/>
<path d="M26.2305 30.8511V33.1582H28.5382V30.8511H26.2305Z" fill="#1A1A1A"/>
<path d="M28.5391 28.5425V30.8496H30.8468V28.5425H28.5391Z" fill="#1A1A1A"/>
<path d="M30.8457 35.4644V37.7715H33.1534V35.4644H30.8457Z" fill="#1A1A1A"/>
<path d="M33.1543 33.1577V35.4648H35.462V33.1577H33.1543Z" fill="#1A1A1A"/>
<path d="M42.3848 30.8423V28.5352H40.0771V30.8423H42.3848Z" fill="#1A1A1A"/>
<path d="M40.0762 33.1489V30.8418H37.7685V33.1489H40.0762Z" fill="#1A1A1A"/>
<path d="M44.6914 28.5356V26.2285H42.3837V28.5356H44.6914Z" fill="#1A1A1A"/>
<path d="M44.6914 26.229V23.9219H42.3837V26.229H44.6914Z" fill="#1A1A1A"/>
<path d="M42.3848 23.9204V21.6133H40.077V23.9204H42.3848Z" fill="#1A1A1A"/>
<path d="M44.6914 21.6138V19.3066H42.3837V21.6138H44.6914Z" fill="#1A1A1A"/>
<path d="M47 19.3071V17H44.6923V19.3071H47Z" fill="#1A1A1A"/>
<path d="M40.0762 21.6138V19.3066H37.7685V21.6138H40.0762Z" fill="#1A1A1A"/>
<path d="M37.7695 21.6138V19.3066H35.4618V21.6138H37.7695Z" fill="#1A1A1A"/>
<path d="M35.4609 23.9204V21.6133H33.1532V23.9204H35.4609Z" fill="#1A1A1A"/>
<path d="M33.1543 26.229V23.9219H30.8466V26.229H33.1543Z" fill="#1A1A1A"/>
<path d="M35.4609 28.5356V26.2285H33.1532V28.5356H35.4609Z" fill="#1A1A1A"/>
<path d="M37.7695 30.8423V28.5352H35.4618V30.8423H37.7695Z" fill="#1A1A1A"/>
</svg>
