<svg width="64" height="64" viewBox="0 0 64 64" fill="none" xmlns="http://www.w3.org/2000/svg">
<rect width="64" height="64" rx="16" fill="#E6FE51"/>
<path d="M33 21.0001V19H30.9999V21.0001H33Z" fill="#1A1A1A"/>
<path d="M31 23.0009V21.0009H28.9999V23.0009H31Z" fill="#1A1A1A"/>
<path d="M31 25.0001V23H28.9999V25.0001H31Z" fill="#1A1A1A"/>
<path d="M35 23.0009V21.0009H32.9999V23.0009H35Z" fill="#1A1A1A"/>
<path d="M35 25.0001V23H32.9999V25.0001H35Z" fill="#1A1A1A"/>
<path d="M37 27.0009V25.0009H34.9999V27.0009H37Z" fill="#1A1A1A"/>
<path d="M37 29.0001V27H34.9999V29.0001H37Z" fill="#1A1A1A"/>
<path d="M39 29.0001V27H36.9999V29.0001H39Z" fill="#1A1A1A"/>
<path d="M41 29.0001V27H38.9999V29.0001H41Z" fill="#1A1A1A"/>
<path d="M43 29.0001V27H40.9999V29.0001H43Z" fill="#1A1A1A"/>
<path d="M45 29.0001V27H42.9999V29.0001H45Z" fill="#1A1A1A"/>
<path d="M45 31.0009V29.0009H42.9999V31.0009H45Z" fill="#1A1A1A"/>
<path d="M43 33.0001V31H40.9999V33.0001H43Z" fill="#1A1A1A"/>
<path d="M41 35.0008V33.0007H38.9999V35.0008H41Z" fill="#1A1A1A"/>
<path d="M39 37.0001V35H36.9999V37.0001H39Z" fill="#1A1A1A"/>
<path d="M41 39.0008V37.0007H38.9999V39.0008H41Z" fill="#1A1A1A"/>
<path d="M41 41.0001V39H38.9999V41.0001H41Z" fill="#1A1A1A"/>
<path d="M43 43.0008V41.0007H40.9999V43.0008H43Z" fill="#1A1A1A"/>
<path d="M41 45.0001V43H38.9999V45.0001H41Z" fill="#1A1A1A"/>
<path d="M39 45.0001V43H36.9999V45.0001H39Z" fill="#1A1A1A"/>
<path d="M37 43.0008V41.0007H34.9999V43.0008H37Z" fill="#1A1A1A"/>
<path d="M35 41.0001V39H32.9999V41.0001H35Z" fill="#1A1A1A"/>
<path d="M27 29.0001V27H24.9999V29.0001H27Z" fill="#1A1A1A"/>
<path d="M25 29.0001V27H22.9999V29.0001H25Z" fill="#1A1A1A"/>
<path d="M23 29.0001V27H20.9999V29.0001H23Z" fill="#1A1A1A"/>
<path d="M21 29.0001V27H18.9999V29.0001H21Z" fill="#1A1A1A"/>
<path d="M21 31.0009V29.0009H18.9999V31.0009H21Z" fill="#1A1A1A"/>
<path d="M23 33.0001V31H20.9999V33.0001H23Z" fill="#1A1A1A"/>
<path d="M25 35.0009V33.0009H22.9999V35.0009H25Z" fill="#1A1A1A"/>
<path d="M27 37.0001V35H24.9999V37.0001H27Z" fill="#1A1A1A"/>
<path d="M25 39.0009V37.0009H22.9999V39.0009H25Z" fill="#1A1A1A"/>
<path d="M25 41.0001V39H22.9999V41.0001H25Z" fill="#1A1A1A"/>
<path d="M23 43.0008V41.0007H20.9999V43.0008H23Z" fill="#1A1A1A"/>
<path d="M25 45.0001V43H22.9999V45.0001H25Z" fill="#1A1A1A"/>
<path d="M27 45.0001V43H24.9999V45.0001H27Z" fill="#1A1A1A"/>
<path d="M29 43.0008V41.0007H26.9999V43.0008H29Z" fill="#1A1A1A"/>
<path d="M31 41.0001V39H28.9999V41.0001H31Z" fill="#1A1A1A"/>
<path d="M33 39.0008V37.0007H30.9999V39.0008H33Z" fill="#1A1A1A"/>
<path d="M29 27.0009V25.0009H26.9999V27.0009H29Z" fill="#1A1A1A"/>
<path d="M29 29.0001V27H26.9999V29.0001H29Z" fill="#1A1A1A"/>
</svg>
