<svg width="64" height="64" viewBox="0 0 64 64" fill="none" xmlns="http://www.w3.org/2000/svg">
<rect width="64" height="64" rx="16" fill="#E6FE51"/>
<path d="M35.5449 17.9998V20.3325H37.9086V17.9998H35.5449Z" fill="#1A1A1A"/>
<path d="M33.1816 20.3326V22.6653H35.5453V20.3326H33.1816Z" fill="#1A1A1A"/>
<path d="M33.1816 22.6654V24.998H35.5453V22.6654H33.1816Z" fill="#1A1A1A"/>
<path d="M30.8184 24.9981V27.3308H33.182V24.9981H30.8184Z" fill="#1A1A1A"/>
<path d="M28.4551 27.3309V29.6636H30.8187V27.3309H28.4551Z" fill="#1A1A1A"/>
<path d="M26.0898 29.6634V31.9961H28.4535V29.6634H26.0898Z" fill="#1A1A1A"/>
<path d="M26.0898 31.9962V34.3289H28.4535V31.9962H26.0898Z" fill="#1A1A1A"/>
<path d="M26.0898 34.3287V36.6614H28.4535V34.3287H26.0898Z" fill="#1A1A1A"/>
<path d="M26.0898 36.6615V38.9941H28.4535V36.6615H26.0898Z" fill="#1A1A1A"/>
<path d="M23.7266 29.6634V31.9961H26.0902V29.6634H23.7266Z" fill="#1A1A1A"/>
<path d="M21.3633 29.6634V31.9961H23.7269V29.6634H21.3633Z" fill="#1A1A1A"/>
<path d="M37.9102 20.3326V22.6653H40.2738V20.3326H37.9102Z" fill="#1A1A1A"/>
<path d="M37.9102 22.6654V24.998H40.2738V22.6654H37.9102Z" fill="#1A1A1A"/>
<path d="M37.9102 24.9981V27.3308H40.2738V24.9981H37.9102Z" fill="#1A1A1A"/>
<path d="M37.9102 27.3306V29.6633H40.2738V27.3306H37.9102Z" fill="#1A1A1A"/>
<path d="M40.2734 27.3309V29.6636H42.6371V27.3309H40.2734Z" fill="#1A1A1A"/>
<path d="M42.6367 29.6634V31.9961H45.0004V29.6634H42.6367Z" fill="#1A1A1A"/>
<path d="M42.6367 31.9962V34.3289H45.0004V31.9962H42.6367Z" fill="#1A1A1A"/>
<path d="M42.6367 34.3289V36.6616H45.0004V34.3289H42.6367Z" fill="#1A1A1A"/>
<path d="M42.6367 36.6615V38.9941H45.0004V36.6615H42.6367Z" fill="#1A1A1A"/>
<path d="M19 29.6634V31.9961H21.3636V29.6634H19Z" fill="#1A1A1A"/>
<path d="M19 31.9962V34.3289H21.3636V31.9962H19Z" fill="#1A1A1A"/>
<path d="M19 34.3287V36.6614H21.3636V34.3287H19Z" fill="#1A1A1A"/>
<path d="M19 36.6615V38.9941H21.3636V36.6615H19Z" fill="#1A1A1A"/>
<path d="M40.2734 41.327V43.6597H42.6371V41.327H40.2734Z" fill="#1A1A1A"/>
<path d="M42.6367 38.9942V41.3269H45.0004V38.9942H42.6367Z" fill="#1A1A1A"/>
<path d="M37.9102 43.6595V45.9922H40.2738V43.6595H37.9102Z" fill="#1A1A1A"/>
<path d="M35.5449 43.6595V45.9922H37.9086V43.6595H35.5449Z" fill="#1A1A1A"/>
<path d="M33.1816 43.6595V45.9922H35.5453V43.6595H33.1816Z" fill="#1A1A1A"/>
<path d="M30.8184 43.6673V46H33.182V43.6673H30.8184Z" fill="#1A1A1A"/>
<path d="M28.4551 41.327V43.6597H30.8187V41.327H28.4551Z" fill="#1A1A1A"/>
<path d="M26.0898 38.9942V41.3269H28.4535V38.9942H26.0898Z" fill="#1A1A1A"/>
<path d="M26.0898 41.3267V43.6594H28.4535V41.3267H26.0898Z" fill="#1A1A1A"/>
<path d="M19 43.6595V45.9922H21.3636V43.6595H19Z" fill="#1A1A1A"/>
<path d="M23.7266 43.6595V45.9922H26.0902V43.6595H23.7266Z" fill="#1A1A1A"/>
<path d="M21.3633 43.6595V45.9922H23.7269V43.6595H21.3633Z" fill="#1A1A1A"/>
<path d="M19 41.3267V43.6594H21.3636V41.3267H19Z" fill="#1A1A1A"/>
<path d="M19 38.9942V41.3269H21.3636V38.9942H19Z" fill="#1A1A1A"/>
<path d="M35.5449 27.3309V29.6636H37.9086V27.3309H35.5449Z" fill="#1A1A1A"/>
</svg>
