<svg width="64" height="64" viewBox="0 0 64 64" fill="none" xmlns="http://www.w3.org/2000/svg">
<rect width="64" height="64" rx="16" fill="#E6FE51"/>
<path d="M23.7266 18.9999V21.3635H26.0902V18.9999H23.7266Z" fill="#1A1A1A"/>
<path d="M21.3633 21.3637V23.7273H23.7269V21.3637H21.3633Z" fill="#1A1A1A"/>
<path d="M26.0918 21.3637V23.7273H28.4554V21.3637H26.0918Z" fill="#1A1A1A"/>
<path d="M23.7266 23.7272V26.0908H26.0902V23.7272H23.7266Z" fill="#1A1A1A"/>
<path d="M30.8184 28.4545V30.8181H33.182V28.4545H30.8184Z" fill="#1A1A1A"/>
<path d="M28.4551 30.8182V33.1819H30.8187V30.8182H28.4551Z" fill="#1A1A1A"/>
<path d="M33.1816 30.8182V33.1819H35.5453V30.8182H33.1816Z" fill="#1A1A1A"/>
<path d="M30.8184 33.1818V35.5454H33.182V33.1818H30.8184Z" fill="#1A1A1A"/>
<path d="M37.9102 37.9091V40.2727H40.2738V37.9091H37.9102Z" fill="#1A1A1A"/>
<path d="M35.5449 40.2726V42.6362H37.9086V40.2726H35.5449Z" fill="#1A1A1A"/>
<path d="M40.2734 40.2726V42.6362H42.6371V40.2726H40.2734Z" fill="#1A1A1A"/>
<path d="M37.9102 42.6364V45H40.2738V42.6364H37.9102Z" fill="#1A1A1A"/>
<path d="M33.1816 21.3637V23.7273H35.5453V21.3637H33.1816Z" fill="#1A1A1A"/>
<path d="M30.8184 21.3637V23.7273H33.182V21.3637H30.8184Z" fill="#1A1A1A"/>
<path d="M37.9102 30.8182V33.1819H40.2738V30.8182H37.9102Z" fill="#1A1A1A"/>
<path d="M35.5449 21.3637V23.7273H37.9086V21.3637H35.5449Z" fill="#1A1A1A"/>
<path d="M37.9102 21.3637V23.7273H40.2738V21.3637H37.9102Z" fill="#1A1A1A"/>
<path d="M42.6367 28.4545V30.8181H45.0004V28.4545H42.6367Z" fill="#1A1A1A"/>
<path d="M42.6367 26.091V28.4546H45.0004V26.091H42.6367Z" fill="#1A1A1A"/>
<path d="M40.2734 30.8182V33.1819H42.6371V30.8182H40.2734Z" fill="#1A1A1A"/>
<path d="M40.2734 21.3637V23.7273H42.6371V21.3637H40.2734Z" fill="#1A1A1A"/>
<path d="M42.6367 23.7272V26.0908H45.0004V23.7272H42.6367Z" fill="#1A1A1A"/>
<path d="M26.0918 42.6363V40.2727H23.7282V42.6363H26.0918Z" fill="#1A1A1A"/>
<path d="M28.4551 42.6363V40.2727H26.0914V42.6363H28.4551Z" fill="#1A1A1A"/>
<path d="M21.3633 40.2648V37.9011H18.9996V40.2648H21.3633Z" fill="#1A1A1A"/>
<path d="M21.3633 35.5455V33.1819H18.9996V35.5455H21.3633Z" fill="#1A1A1A"/>
<path d="M21.3633 37.909V35.5454H18.9996V37.909H21.3633Z" fill="#1A1A1A"/>
<path d="M23.7266 33.1818V30.8181H21.3629V33.1818H23.7266Z" fill="#1A1A1A"/>
<path d="M26.0918 33.1818V30.8181H23.7282V33.1818H26.0918Z" fill="#1A1A1A"/>
<path d="M23.7266 42.6363V40.2727H21.3629V42.6363H23.7266Z" fill="#1A1A1A"/>
<path d="M30.8184 42.6363V40.2727H28.4547V42.6363H30.8184Z" fill="#1A1A1A"/>
<path d="M33.1816 42.6363V40.2727H30.818V42.6363H33.1816Z" fill="#1A1A1A"/>
</svg>
