<svg width="64" height="64" viewBox="0 0 64 64" fill="none" xmlns="http://www.w3.org/2000/svg">
<rect width="64" height="64" rx="16" fill="#E6FE51"/>
<path d="M39.2012 22.4001V20H24.8012V22.4001H39.2012Z" fill="#1A1A1A"/>
<path d="M24.8008 24.801V22.4009H22.4008V24.801H24.8008Z" fill="#1A1A1A"/>
<path d="M41.6016 24.801V22.4009H39.2016V24.801H41.6016Z" fill="#1A1A1A"/>
<path d="M41.6016 41.6011V39.201H39.2016V41.6011H41.6016Z" fill="#1A1A1A"/>
<path d="M39.2012 43.9999V41.5999H24.8012V43.9999H39.2012Z" fill="#1A1A1A"/>
<path d="M24.8008 41.6011V39.201H22.4008V41.6011H24.8008Z" fill="#1A1A1A"/>
<path d="M22.4004 39.2003V24.7998H20.0004V39.2003H22.4004Z" fill="#1A1A1A"/>
<path d="M44 39.2003V24.7998H41.6V39.2003H44Z" fill="#1A1A1A"/>
<path d="M29.6016 29.6008V27.2007H27.2016V29.6008H29.6016Z" fill="#1A1A1A"/>
<path d="M38.4004 36.0004V33.6003H36.0004V36.0004H38.4004Z" fill="#1A1A1A"/>
<path d="M28.8008 36.0004V33.6003H26.4008V36.0004H28.8008Z" fill="#1A1A1A"/>
<path d="M36 38.4013V36.0012H28.8V38.4013H36Z" fill="#1A1A1A"/>
<path d="M36.8008 29.6008V27.2007H34.4008V29.6008H36.8008Z" fill="#1A1A1A"/>
</svg>
