<svg width="548" height="238" fill="none" xmlns="http://www.w3.org/2000/svg"><path d="M105.846 168.378v1h36.701v-27.546h28.113v-28.45h-28.113V68.385h-36.701v44.997H49.81L110.79 5.786l.847-1.494H72.985l-.286.512L8.127 120.26l-.127.228v21.345h97.846v26.546zm102.392-17.392l.002.002C223.421 165.714 245.416 173 274.057 173c28.641 0 50.635-7.286 65.816-22.012l.002-.002c15.182-14.801 22.704-35.981 22.704-63.382v-1.427c0-27.328-7.522-48.435-22.704-63.163C324.766 8.286 302.77 1 274.057 1c-28.714 0-50.745 7.286-65.927 22.012l-.002.002c-15.109 14.728-22.594 35.836-22.594 63.163v1.427c0 27.401 7.522 48.581 22.704 63.382zm103.512-21.69h0c-8.62 9.541-21.13 14.377-37.693 14.377-16.64 0-29.186-4.802-37.805-14.269-8.638-9.561-13.028-23.262-13.028-41.252v-2.524c0-17.916 4.39-31.543 13.027-41.031 8.619-9.468 21.165-14.27 37.806-14.27 16.563 0 29.073 4.836 37.693 14.377l.003.003c8.712 9.563 13.136 23.156 13.136 40.921v2.524c0 17.839-4.424 31.507-13.139 41.144zm14.139-43.668c0-17.925-4.465-31.79-13.397-41.594l-76.981 86.042c8.859 9.731 21.707 14.597 38.546 14.597 16.765 0 29.577-4.902 38.435-14.707 8.932-9.877 13.397-23.815 13.397-41.814v-2.524zm149.297 82.75v1h36.701v-27.546H540v-28.45h-28.113V68.385h-36.701v44.997h-56.035L480.13 5.786l.847-1.494h-38.652l-.286.512-64.572 115.455-.127.228v21.345h97.846v26.546z" stroke="#D8D8D8" stroke-width="2"/><path fill="#1A1A1A" d="M24 202v6h-6v-6zm0-24v6h-6v-6zm-6 24v6h-6v-6zm12-6v6h-6v-6zm-18 6v6H6v-6zm0-6v6H6v-6zm24-6v6h-6v-6zm-12 18v6h-6v-6zm0-24v6h-6v-6zm0-12v6h-6v-6zm0 42v6h-6v-6zm0-24v6h-6v-6zm-12-6v6H6v-6zm24 12v6h-6v-6zm-12 24v6h-6v-6zm0-24v6h-6v-6zm-12-6v6H6v-6zm24-6v6h-6v-6zm420 18v6h-6v-6zm0-24v6h-6v-6zm-6 24v6h-6v-6zm12-6v6h-6v-6zm-18 6v6h-6v-6zm0-6v6h-6v-6zm24-6v6h-6v-6zm-12 18v6h-6v-6zm0-24v6h-6v-6zm0-12v6h-6v-6zm0 42v6h-6v-6zm0-24v6h-6v-6zm-12-6v6h-6v-6zm24 12v6h-6v-6zm-12 24v6h-6v-6zm0-24v6h-6v-6zm-12-6v6h-6v-6zm24-6v6h-6v-6zm80 42v3H0v-3zM140 112v6h-6v-6zm24 0v6h-6v-6zm0 6v6h-6v-6zm0 6v6h-6v-6zm0 6v6h-6v-6zm0 6v6h-6v-6zm-18-24v6h-6v-6zm0 12v6h-6v-6zm0 6v6h-6v-6zm0 6v6h-6v-6zm0 6v6h-6v-6zm0 6v6h-6v-6zm0 6v6h-6v-6zm0 6v6h-6v-6zm-6 6v6h-6v-6zm0 6v6h-6v-6zm0 6v6h-6v-6zm0 6v6h-6v-6zm0 6v6h-6v-6zm0 6v6h-6v-6zm0 6v6h-6v-6zm24-54v6h-6v-6zm6-36v6h-6v-6zm0 6v6h-6v-6zm0 6v6h-6v-6zm0 6v6h-6v-6zm0 6v6h-6v-6zm-18-24v6h-6v-6zm0 6v6h-6v-6zm0 6v6h-6v-6zm0 6v6h-6v-6zm0 6v6h-6v-6zm0 6v6h-6v-6zm0 6v6h-6v-6zm0 6v6h-6v-6zm0 6v6h-6v-6zm-6 6v6h-6v-6zm0 6v6h-6v-6zm0 6v6h-6v-6zm0 6v6h-6v-6zm0 6v6h-6v-6zm0 6v6h-6v-6zm6-30v6h-6v-6zm0 6v6h-6v-6zm0 6v6h-6v-6zm0 6v6h-6v-6zm6-18v6h-6v-6zm6 0v6h-6v-6zm0 6v6h-6v-6zm6-24v6h-6v-6zm6-36v6h-6v-6zm0 6v6h-6v-6zm0 6v6h-6v-6zm0 6v6h-6v-6zm0 6v6h-6v-6zm6-18v6h-6v-6zm0 6v6h-6v-6zm0 6v6h-6v-6zm0 6v6h-6v-6zm-24-24v6h-6v-6zm0 6v6h-6v-6zm0 6v6h-6v-6zm0 6v6h-6v-6zm0 6v6h-6v-6zm0 6v6h-6v-6zm0 6v6h-6v-6zm18 0v6h-6v-6zm-42-30v6h-6v-6zm0 6v6h-6v-6zm0 6v6h-6v-6zm0 6v6h-6v-6zm0 6v6h-6v-6zm0 6v6h-6v-6zm0 6v6h-6v-6zm0 6v6h-6v-6zm-6 6v6h-6v-6zm0 6v6h-6v-6zm0 6v6h-6v-6zm0 6v6h-6v-6zm0 6v6h-6v-6zm0 6v6h-6v-6zm0 6v6h-6v-6zm0 6v6h-6v-6zm-30-30v6h-6v-6zm0 6v6h-6v-6zm0 6v6h-6v-6zm0 6v6h-6v-6zm0 6v6h-6v-6zm30-48v6h-6v-6zm0 6v6h-6v-6zm-6 6v6h-6v-6zm0 6v6h-6v-6zm0 6v6h-6v-6zm0 6v6h-6v-6zm0 6v6h-6v-6zm0 6v6h-6v-6zm0 6v6h-6v-6zm0 6v6h-6v-6zm-30-30v6h-6v-6zm0 6v6h-6v-6zm0 6v6h-6v-6zm0 6v6h-6v-6zm0-24v6h-6v-6zm30-12v6h-6v-6zm-6 6v6h-6v-6zm0 6v6h-6v-6zm0 6v6h-6v-6zm0 6v6h-6v-6zm0 6v6h-6v-6zm0 6v6h-6v-6zm0 6v6h-6v-6zm0 6v6h-6v-6zm0 6v6h-6v-6zm-30-36v6h-6v-6zm0 6v6h-6v-6zm0 6v6h-6v-6zm0-18v6h-6v-6zm0-6v6h-6v-6zm24 6v6h-6v-6zm0 6v6h-6v-6zm0 6v6h-6v-6zm0 6v6h-6v-6zm0 6v6h-6v-6zm0 6v6h-6v-6zm0 6v6h-6v-6zm0 6v6h-6v-6zm0 6v6h-6v-6zm24-6v6h-6v-6zm-6 0v6h-6v-6zm-48-36v6h-6v-6zm0 6v6h-6v-6zm0-12v6h-6v-6zm0-6v6h-6v-6zm0-6v6h-6v-6zm0-6v6h-6v-6zm60-36v6h-6v-6zm0 6v6h-6v-6zm0 6v6h-6v-6zm0 6v6h-6v-6zm0 6v6h-6v-6zm0 6v6h-6v-6zm0 6v6h-6v-6zm0 6v6h-6v-6zm-6 6v6h-6v-6zm0 6v6h-6v-6zm0 6v6h-6v-6zm0 6v6h-6v-6zm0 6v6h-6v-6zm0 6v6h-6v-6zm0 6v6h-6v-6zm0 6v6h-6v-6zm-30-30v6h-6v-6zm0 6v6h-6v-6zm0 6v6h-6v-6zm0 6v6h-6v-6zm0 6v6h-6v-6zm0 6v6h-6v-6zm0 6v6h-6v-6zm0 6v6h-6v-6zm30 0v6h-6v-6z"/><path fill="#1A1A1A" d="M104 226v6h-6v-6zm30 0v6h-6v-6zm-30 6v6h-6v-6zm30 0v6h-6v-6zm-24 0v6h-6v-6zm30 0v6h-6v-6z"/></svg>