<?xml version="1.0" encoding="utf-8"?><svg viewBox="0 0 165 64" xmlns="http://www.w3.org/2000/svg" xmlns:xlink="http://www.w3.org/1999/xlink"><style>:root>svg{display:none}:root>svg:target{display:block}</style><svg fill="none" viewBox="0 0 64 64" id="benefits--benefit-1" xmlns="http://www.w3.org/2000/svg"><rect width="64" height="64" rx="16" fill="#E6FE51"/><path d="M38.858 23.545h-2.286v2.273h2.286v-2.273zm-2.288-2.272h-2.285v2.272h2.286v-2.272zm0 6.817h-2.285v2.273h2.286v-2.272zm0 2.274h-2.285v2.272h2.286v-2.272zm0 2.272h-2.285v2.273h2.286v-2.273zm2.288 0h-2.286v2.273h2.286v-2.273z" fill="#1A1A1A"/><path d="M41.143 32.636h-2.286v2.273h2.286v-2.273zM34.286 19H32v2.273h2.286V19z" fill="#1A1A1A"/><path d="M36.57 19h-2.285v2.273h2.286V19zm2.288 0h-2.286v2.273h2.286V19zm2.285 4.545h-2.286v2.273h2.286v-2.273zm4.57 0h-2.285v2.273h2.285v-2.273zm0-2.272h-2.285v2.272h2.285v-2.272zM48 23.545h-2.285v2.273H48v-2.273zm-11.43 0h-2.285v2.273h2.286v-2.273z" fill="#1A1A1A"/><path d="M34.286 23.545H32v2.273h2.286v-2.273zm4.572 18.182h-2.286V44h2.286v-2.273z" fill="#1A1A1A"/><path d="M41.143 41.727h-2.286V44h2.286v-2.273zm-4.573 0h-2.285V44h2.286v-2.273z" fill="#1A1A1A"/><path d="M34.286 41.727H32V44h2.286v-2.273zm-2.286 0h-2.285V44H32v-2.273zm0-18.182h-2.285v2.273H32v-2.273zm-2.287 15.91h-2.285v2.272h2.285v-2.272zm13.715-13.637h-2.285v2.273h2.285v-2.273zm-13.715 0h-2.285v2.273h2.285v-2.273zm13.715 13.637h-2.285v2.272h2.285v-2.272zm2.285-11.365h-2.285v2.273h2.285v-2.272zm-18.285 0h-2.285v2.273h2.285v-2.272zm-4.571 0H16v2.273h6.857v-2.272zm0 4.546h-4.572v2.273h4.572v-2.273zm-.001 4.546H20.57v2.272h2.286v-2.272zm4.572-6.818h-2.285v2.272h2.285v-2.272zm0 2.272h-2.285v2.273h2.285v-2.273zm0 4.546h-2.285v2.272h2.285v-2.272z" fill="#1A1A1A"/><path d="M27.428 34.91h-2.285v2.272h2.285v-2.273zm18.285-4.547h-2.285v2.273h2.285v-2.273zm0 2.273h-2.285v2.273h2.285v-2.273zm0 4.546h-2.285v2.273h2.285v-2.273z" fill="#1A1A1A"/><path d="M45.713 34.91h-2.285v2.272h2.285v-2.273z" fill="#1A1A1A"/></svg><svg fill="none" viewBox="0 0 64 64" id="benefits--benefit-2" xmlns="http://www.w3.org/2000/svg"><rect width="64" height="64" rx="16" fill="#E6FE51"/><path d="M35.545 18v2.332h2.364V18h-2.364zm-2.363 2.333v2.332h2.363v-2.332h-2.363zm0 2.332v2.333h2.363v-2.333h-2.363zm-2.364 2.333v2.333h2.364v-2.333h-2.364z" fill="#1A1A1A"/><path d="M28.455 27.33v2.334h2.364V27.33h-2.364zm-2.365 2.333v2.333h2.363v-2.333H26.09z" fill="#1A1A1A"/><path d="M26.09 31.996v2.333h2.363v-2.333H26.09zm0 2.333v2.332h2.363V34.33H26.09zm0 2.332v2.333h2.363v-2.333H26.09zm-2.363-6.998v2.333h2.363v-2.333h-2.363zm-2.364 0v2.333h2.364v-2.333h-2.364zm16.547-9.33v2.332h2.364v-2.332H37.91zm0 2.332v2.333h2.364v-2.333H37.91zm0 2.333v2.333h2.364v-2.333H37.91z" fill="#1A1A1A"/><path d="M37.91 27.33v2.333h2.364v-2.332H37.91z" fill="#1A1A1A"/><path d="M40.273 27.33v2.334h2.364V27.33h-2.364zm2.364 2.333v2.333H45v-2.333h-2.363zM42.637 31.996v2.333H45v-2.333h-2.363zm0 2.333v2.333H45v-2.333h-2.363z" fill="#1A1A1A"/><path d="M42.637 36.661v2.333H45v-2.333h-2.363zM19 29.663v2.333h2.364v-2.333H19z" fill="#1A1A1A"/><path d="M19 31.996v2.333h2.364v-2.333H19zm0 2.333v2.332h2.364V34.33H19zm0 2.332v2.333h2.364v-2.333H19zm21.273 4.666v2.333h2.364v-2.333h-2.364zm2.364-2.333v2.333H45v-2.333h-2.363zM37.91 43.66v2.332h2.364V43.66H37.91zm-2.365 0v2.332h2.364V43.66h-2.364zm-2.363 0v2.332h2.363V43.66h-2.363zm-2.364.007V46h2.364v-2.333h-2.364zm-2.363-2.34v2.333h2.364v-2.333h-2.364zm-2.365-2.333v2.333h2.363v-2.333H26.09zm0 2.333v2.332h2.363v-2.332H26.09zM19 43.66v2.332h2.364V43.66H19zm4.727 0v2.332h2.363V43.66h-2.363z" fill="#1A1A1A"/><path d="M21.363 43.66v2.332h2.364V43.66h-2.364zM19 41.327v2.332h2.364v-2.332H19zm0-2.333v2.333h2.364v-2.333H19zM35.545 27.33v2.334h2.364V27.33h-2.364z" fill="#1A1A1A"/></svg><svg fill="none" viewBox="0 0 64 64" id="benefits--benefit-3" xmlns="http://www.w3.org/2000/svg"><rect width="64" height="64" rx="16" fill="#E6FE51"/><path d="M23.727 19v2.363h2.363V19h-2.363zm-2.364 2.364v2.363h2.364v-2.363h-2.364zm4.729 0v2.363h2.363v-2.363h-2.363zm-2.365 2.363v2.364h2.363v-2.364h-2.363zm7.091 4.727v2.364h2.364v-2.364h-2.364zm-2.363 2.364v2.364h2.364v-2.364h-2.364zm4.727 0v2.364h2.363v-2.364h-2.363zm-2.364 2.364v2.363h2.364v-2.363h-2.364zm7.092 4.728v2.363h2.364v-2.364H37.91zm-2.365 2.363v2.363h2.364v-2.363h-2.364zm4.728 0v2.363h2.364v-2.363h-2.364zm-2.363 2.363V45h2.364v-2.364H37.91zm-4.728-21.272v2.363h2.363v-2.363h-2.363zm-2.364 0v2.363h2.364v-2.363h-2.364zm7.092 9.454v2.364h2.364v-2.364H37.91zm-2.365-9.454v2.363h2.364v-2.363h-2.364zm2.365 0v2.363h2.364v-2.363H37.91zm4.727 7.09v2.364H45v-2.364h-2.363z" fill="#1A1A1A"/><path d="M42.637 26.091v2.364H45V26.09h-2.363zm-2.364 4.727v2.364h2.364v-2.364h-2.364zm0-9.454v2.363h2.364v-2.363h-2.364z" fill="#1A1A1A"/><path d="M42.637 23.727v2.364H45v-2.364h-2.363zM26.092 42.636v-2.363h-2.364v2.363h2.364z" fill="#1A1A1A"/><path d="M28.455 42.636v-2.363h-2.364v2.363h2.364zm-7.092-2.371V37.9H19v2.364h2.363zm0-4.72v-2.363H19v2.363h2.363z" fill="#1A1A1A"/><path d="M21.363 37.909v-2.364H19v2.364h2.363zm2.364-4.727v-2.364h-2.364v2.364h2.364zm2.365 0v-2.364h-2.364v2.364h2.364zm-2.365 9.454v-2.363h-2.364v2.363h2.364zm7.091 0v-2.363h-2.363v2.363h2.363zm2.364 0v-2.363h-2.364v2.363h2.364z" fill="#1A1A1A"/></svg><svg fill="none" viewBox="0 0 64 64" id="benefits--benefit-4" xmlns="http://www.w3.org/2000/svg"><rect width="64" height="64" rx="16" fill="#E6FE51"/><path d="M21.615 33.15v2.307h2.308V33.15h-2.308zm2.309-2.307v2.307h2.308v-2.307h-2.308zm-4.615 4.614v2.307h2.307v-2.307H19.31z" fill="#1A1A1A"/><path d="M19.309 37.763v2.307h2.307v-2.307H19.31zm2.306 2.317v2.307h2.308V40.08h-2.308z" fill="#1A1A1A"/><path d="M19.309 42.386v2.307h2.307v-2.307H19.31zM17 44.693V47h2.308v-2.307H17zm6.924-2.307v2.307h2.308v-2.307h-2.308z" fill="#1A1A1A"/><path d="M26.23 42.378v2.307h2.308v-2.307H26.23zm2.31-2.306v2.307h2.307v-2.307h-2.308zm2.306-2.309v2.307h2.307v-2.307h-2.307z" fill="#1A1A1A"/><path d="M28.54 35.464v2.308h2.307v-2.308h-2.308zm-2.31-2.306v2.307h2.308v-2.307H26.23zm0-2.307v2.307h2.308v-2.307H26.23zm2.31-2.308v2.307h2.307v-2.308h-2.308z" fill="#1A1A1A"/><path d="M30.846 35.464v2.308h2.307v-2.308h-2.307zm2.308-2.306v2.307h2.308v-2.307h-2.308zm9.231-2.316v-2.307h-2.308v2.307h2.308zm-2.309 2.307v-2.307H37.77v2.307h2.307z" fill="#1A1A1A"/><path d="M44.691 28.536v-2.308h-2.307v2.308h2.307z" fill="#1A1A1A"/><path d="M44.691 26.229v-2.307h-2.307v2.307h2.307zm-2.306-2.309v-2.307h-2.308v2.307h2.308z" fill="#1A1A1A"/><path d="M44.691 21.614v-2.307h-2.307v2.307h2.307zM47 19.307V17h-2.308v2.307H47zm-6.924 2.307v-2.307H37.77v2.307h2.307zm-2.306 0v-2.307h-2.308v2.307h2.307zm-2.31 2.306v-2.307h-2.307v2.307h2.308zm-2.306 2.309v-2.307h-2.307v2.307h2.307z" fill="#1A1A1A"/><path d="M35.46 28.536v-2.308h-2.307v2.308h2.308zm2.31 2.306v-2.307h-2.308v2.307h2.307z" fill="#1A1A1A"/></svg><svg fill="none" viewBox="0 0 64 64" id="benefits--benefit-5" xmlns="http://www.w3.org/2000/svg"><rect width="64" height="64" rx="16" fill="#E6FE51"/><path d="M39.201 22.4V20h-14.4v2.4h14.4zM24.8 24.801v-2.4h-2.4v2.4h2.4zm16.802 0v-2.4h-2.4v2.4h2.4zm0 16.8v-2.4h-2.4v2.4h2.4zM39.201 44v-2.4h-14.4V44h14.4zM24.8 41.601v-2.4h-2.4v2.4h2.4zM22.4 39.2V24.8H20v14.4h2.4z" fill="#1A1A1A"/><path d="M44 39.2V24.8h-2.4v14.4H44zm-14.398-9.6v-2.4h-2.4v2.4h2.4zM38.4 36v-2.4H36V36h2.4zm-9.6 0v-2.4h-2.4V36h2.4zm7.2 2.401v-2.4h-7.2v2.4H36zm.8-8.801v-2.4h-2.4v2.4h2.4z" fill="#1A1A1A"/></svg><svg fill="none" viewBox="0 0 64 64" id="benefits--benefit-6" xmlns="http://www.w3.org/2000/svg"><rect width="64" height="64" rx="16" fill="#E6FE51"/><path d="M33 21v-2h-2v2h2zm-2 2v-2h-2v2h2zm0 2v-2h-2v2h2zm4-2v-2h-2v2h2zm0 2v-2h-2v2h2zm2 2v-2h-2v2h2zm0 2v-2h-2v2h2zm2 0v-2h-2v2h2zm2 0v-2h-2v2h2zm2 0v-2h-2v2h2zm2 0v-2h-2v2h2zm0 2v-2h-2v2h2zm-2 2v-2h-2v2h2zm-2 2v-2h-2v2h2zm-2 2v-2h-2v2h2zm2 2v-2h-2v2h2zm0 2v-2h-2v2h2zm2 2v-2h-2v2h2zm-2 2v-2h-2v2h2zm-2 0v-2h-2v2h2zm-2-2v-2h-2v2h2zm-2-2v-2h-2v2h2zm-8-12v-2h-2v2h2zm-2 0v-2h-2v2h2zm-2 0v-2h-2v2h2zm-2 0v-2h-2v2h2zm0 2v-2h-2v2h2zm2 2v-2h-2v2h2zm2 2v-2h-2v2h2zm2 2v-2h-2v2h2zm-2 2v-2h-2v2h2zm0 2v-2h-2v2h2zm-2 2v-2h-2v2h2zm2 2v-2h-2v2h2zm2 0v-2h-2v2h2zm2-2v-2h-2v2h2zm2-2v-2h-2v2h2zm2-2v-2h-2v2h2zm-4-12v-2h-2v2h2zm0 2v-2h-2v2h2z" fill="#1A1A1A"/></svg><svg viewBox="0 0 20 20" fill="none" id="check" xmlns="http://www.w3.org/2000/svg"><path d="m7 10 2 2 4-4" stroke="currentColor" stroke-width="1.5" stroke-linecap="round" stroke-linejoin="round"/><circle cx="10" cy="10" r="9.25" stroke="currentColor" stroke-width="1.5"/></svg><svg viewBox="0 0 165 16" fill="none" id="logo" xmlns="http://www.w3.org/2000/svg"><path d="M55.338 5.8V3.885H42.945V6.06h8.05l-8.71 7.698v1.894h13.508V13.48H46.81l8.528-7.68zm16.805 5.706-.01.04h.01v-.04zm-.833-5.157c-.6-.91-1.506-1.636-2.594-2.075a12.312 12.312 0 0 0-8.316-.011c-1.12.442-2.063 1.169-2.707 2.086a5.48 5.48 0 0 0-.955 3.223v.159a5.859 5.859 0 0 0 .955 3.392c.639.933 1.582 1.677 2.707 2.136 1.277.512 2.67.764 4.073.737 1.363.03 2.72-.163 4.004-.568a5.796 5.796 0 0 0 2.536-1.566 4.82 4.82 0 0 0 1.117-2.315h-3.312v-.02a2.24 2.24 0 0 1-.454.916 2.615 2.615 0 0 1-.843.67 6.33 6.33 0 0 1-3.003.59 6.09 6.09 0 0 1-2.378-.42c-.654-.274-1.185-.73-1.512-1.297a3.77 3.77 0 0 1-.492-1.536h12.047v-.9a5.794 5.794 0 0 0-.874-3.202zM60.627 7.526c.335-.555.866-1 1.513-1.268a6.09 6.09 0 0 1 2.378-.418 6.481 6.481 0 0 1 2.456.418c.633.24 1.16.653 1.502 1.178.235.378.388.791.453 1.218h-8.728a3.42 3.42 0 0 1 .426-1.128zm62.239 3.976c0 .014-.008.027-.011.04h.011v-.04z" fill="currentColor"/><path d="M122.036 6.345c-.599-.91-1.505-1.635-2.593-2.075a12.306 12.306 0 0 0-8.316-.01c-1.12.441-2.063 1.168-2.708 2.085a5.489 5.489 0 0 0-.955 3.223v.16a5.87 5.87 0 0 0 .955 3.392c.639.933 1.583 1.677 2.708 2.136 1.277.512 2.669.764 4.072.737 1.364.03 2.721-.163 4.005-.568a5.804 5.804 0 0 0 2.536-1.566 4.819 4.819 0 0 0 1.116-2.315h-3.312v-.02a2.23 2.23 0 0 1-.455.914c-.223.273-.51.501-.842.67-.92.436-1.959.64-3.003.589a6.084 6.084 0 0 1-2.377-.42c-.654-.274-1.186-.73-1.513-1.297-.275-.479-.441-1-.489-1.534h12.047v-.898a5.803 5.803 0 0 0-.876-3.203zm-10.681 1.178c.335-.555.866-1 1.513-1.268a6.085 6.085 0 0 1 2.377-.418 6.483 6.483 0 0 1 2.457.418c.633.24 1.16.653 1.502 1.177.234.379.388.791.453 1.218h-8.728c.072-.393.216-.774.426-1.127zM100.126 13l-.113.498h-.046l-.182-.499-3.253-9.118h-3.89l-3.298 9.118-.182.499h-.046l-.091-.499-3.117-9.118h-3.525l4.504 11.772h4.186l3.367-9.178.09-.32h.045l.091.32 3.39 9.178h4.209l4.504-11.772h-3.527l-3.116 9.118zm52.279-9.24h-3.768l-3.86 4.494h-3.286V.234h-3.307v15.414h3.307v-5.179h3.218l4.249 5.179h3.883l-5.33-6.267 4.894-5.621zm-131.523.126h-3.32v11.766h3.32V3.886zm0-3.886h-3.32v2.452h3.32V0zM3.684 9.209h10.162V6.914H3.684V3.326h11.072V.833H0V15.65h14.892v-2.473H3.684V9.21zm74.63 2.909V.238h-3.306v11.79c0 2 2.219 3.624 4.96 3.624h2.065v-2.447h-2.066c-.912 0-1.653-.486-1.653-1.087zm-44.56-8.583h-.078c-1.332 0-2.767.084-4.119.772a4.098 4.098 0 0 0-1.65 1.315 43.487 43.487 0 0 0-.517 1.021l-.375-.136.686-1.373a2.264 2.264 0 0 0 .271-1.088v-.17h-3.35v11.776h3.323V10.24a4.307 4.307 0 0 1 .517-2.088 4 4 0 0 1 1.578-1.588 5.235 5.235 0 0 1 2.639-.613c1.319 0 2.302.306 2.962.907.646.602.97 1.52.97 2.746v6.047h3.298V9.265c0-1.94-.53-3.38-1.617-4.322-1.086-.941-2.598-1.408-4.538-1.408zm96.904.773a4.27 4.27 0 0 0-1.63 1.296c0 .015-.017.015-.017.03-.136.253-.51 1.013-.51 1.013l-.379-.133.68-1.37a2.55 2.55 0 0 0 .237-.686.082.082 0 0 0 .018-.06c0-.104.016-.238.016-.342v-.18h-3.346v11.771h3.33v-5.409a2.728 2.728 0 0 1 .016-.372 4.162 4.162 0 0 1 .493-1.714 4.012 4.012 0 0 1 1.58-1.58 5.16 5.16 0 0 1 2.633-.61c.752.012 1.502.075 2.243.189V3.696a6.803 6.803 0 0 0-1.495-.149 8.416 8.416 0 0 0-3.869.76zm29.058 4.239h-2.642v2.317h2.642V8.547zm2.641 2.317h-2.642v2.317h2.642v-2.317zm2.644 2.318h-2.642v2.316h2.642v-2.316zm-2.644-6.952h-2.642v2.317h2.642V6.23zm2.644-2.317h-2.642V6.23h2.642V3.913z" fill="currentColor"/></svg><svg viewBox="0 0 20 20" fill="none" id="tooltip" xmlns="http://www.w3.org/2000/svg"><path d="M10.27 12.041H8.774a4.98 4.98 0 0 1 .082-.908c.055-.258.147-.49.276-.697.133-.207.308-.413.527-.616a6.78 6.78 0 0 0 .48-.468c.137-.149.245-.301.323-.457a1.2 1.2 0 0 0 .117-.534c0-.226-.035-.414-.105-.562a.714.714 0 0 0-.305-.346.982.982 0 0 0-.504-.117c-.168 0-.324.037-.469.111a.87.87 0 0 0-.357.328c-.09.149-.137.344-.14.586H7c.012-.535.135-.976.37-1.324a2.13 2.13 0 0 1 .954-.78A3.355 3.355 0 0 1 9.666 6c.547 0 1.016.09 1.406.27.39.175.69.435.897.779.207.34.31.754.31 1.242 0 .34-.066.643-.199.908a3.106 3.106 0 0 1-.521.733c-.215.226-.452.46-.71.703a1.62 1.62 0 0 0-.456.627c-.079.218-.12.478-.123.779zm-1.67 1.81a.82.82 0 0 1 .257-.62c.172-.168.403-.252.692-.252.285 0 .514.084.685.252a.813.813 0 0 1 .264.62.818.818 0 0 1-.264.616c-.171.168-.4.252-.685.252-.29 0-.52-.084-.692-.252a.828.828 0 0 1-.257-.615z" fill="currentColor"/><circle cx="10" cy="10" r="9.25" stroke="currentColor" stroke-width="1.5"/></svg></svg>