<svg width="548" height="238" viewBox="0 0 548 238" fill="none" xmlns="http://www.w3.org/2000/svg">
<path d="M105.846 168.378V169.378H106.846H141.547H142.547V168.378V141.832H169.66H170.66V140.832V114.382V113.382H169.66H142.547V69.3854V68.3854H141.547H106.846H105.846V69.3854V113.382H49.8105L110.79 5.78551L111.637 4.29244H109.92H73.5715H72.985L72.6987 4.80432L8.12723 120.259L8 120.487V120.748V140.832V141.832H9H105.846V168.378ZM208.238 150.986L208.24 150.988C223.421 165.714 245.416 173 274.057 173C302.698 173 324.692 165.714 339.873 150.988L339.875 150.986C355.057 136.185 362.579 115.005 362.579 87.6036V86.1769C362.579 58.8492 355.057 37.7417 339.875 23.0141C324.766 8.28586 302.77 1 274.057 1C245.343 1 223.312 8.286 208.13 23.0123L208.128 23.0141C193.019 37.742 185.534 58.8496 185.534 86.1769V87.6036C185.534 115.005 193.056 136.185 208.238 150.986ZM311.75 129.296L311.75 129.296C303.13 138.837 290.62 143.673 274.057 143.673C257.417 143.673 244.871 138.871 236.252 129.404C227.614 119.843 223.224 106.142 223.224 88.1524V85.6281C223.224 67.7116 227.614 54.0847 236.251 44.597C244.87 35.1289 257.416 30.3273 274.057 30.3273C290.62 30.3273 303.13 35.1632 311.75 44.704L311.753 44.707C320.465 54.2705 324.889 67.8629 324.889 85.6281V88.1524C324.889 105.991 320.465 119.659 311.75 129.296ZM325.889 85.6281C325.889 67.7026 321.424 53.8377 312.492 44.0336L235.511 130.076C244.37 139.807 257.218 144.673 274.057 144.673C290.822 144.673 303.634 139.771 312.492 129.966C321.424 120.089 325.889 106.151 325.889 88.1524V85.6281ZM475.186 168.378V169.378H476.186H510.887H511.887V168.378V141.832H539H540V140.832V114.382V113.382H539H511.887V69.3854V68.3854H510.887H476.186H475.186V69.3854V113.382H419.151L480.13 5.78551L480.977 4.29244H479.26H442.912H442.325L442.039 4.80432L377.467 120.259L377.34 120.487V120.748V140.832V141.832H378.34H475.186V168.378Z" stroke="#D8D8D8" stroke-width="2"/>
<rect x="24" y="202" width="6" height="6" transform="rotate(90 24 202)" fill="#1A1A1A"/>
<rect x="24" y="178" width="6" height="6" transform="rotate(90 24 178)" fill="#1A1A1A"/>
<rect x="18" y="202" width="6" height="6" transform="rotate(90 18 202)" fill="#1A1A1A"/>
<rect x="30" y="196" width="6" height="6" transform="rotate(90 30 196)" fill="#1A1A1A"/>
<rect x="12" y="202" width="6" height="6" transform="rotate(90 12 202)" fill="#1A1A1A"/>
<rect x="12" y="196" width="6" height="6" transform="rotate(90 12 196)" fill="#1A1A1A"/>
<rect x="36" y="190" width="6" height="6" transform="rotate(90 36 190)" fill="#1A1A1A"/>
<rect x="24" y="208" width="6" height="6" transform="rotate(90 24 208)" fill="#1A1A1A"/>
<rect x="24" y="184" width="6" height="6" transform="rotate(90 24 184)" fill="#1A1A1A"/>
<rect x="24" y="172" width="6" height="6" transform="rotate(90 24 172)" fill="#1A1A1A"/>
<rect x="24" y="214" width="6" height="6" transform="rotate(90 24 214)" fill="#1A1A1A"/>
<rect x="24" y="190" width="6" height="6" transform="rotate(90 24 190)" fill="#1A1A1A"/>
<rect x="12" y="184" width="6" height="6" transform="rotate(90 12 184)" fill="#1A1A1A"/>
<rect x="36" y="196" width="6" height="6" transform="rotate(90 36 196)" fill="#1A1A1A"/>
<rect x="24" y="220" width="6" height="6" transform="rotate(90 24 220)" fill="#1A1A1A"/>
<rect x="24" y="196" width="6" height="6" transform="rotate(90 24 196)" fill="#1A1A1A"/>
<rect x="12" y="190" width="6" height="6" transform="rotate(90 12 190)" fill="#1A1A1A"/>
<rect x="36" y="184" width="6" height="6" transform="rotate(90 36 184)" fill="#1A1A1A"/>
<rect x="456" y="202" width="6" height="6" transform="rotate(90 456 202)" fill="#1A1A1A"/>
<rect x="456" y="178" width="6" height="6" transform="rotate(90 456 178)" fill="#1A1A1A"/>
<rect x="450" y="202" width="6" height="6" transform="rotate(90 450 202)" fill="#1A1A1A"/>
<rect x="462" y="196" width="6" height="6" transform="rotate(90 462 196)" fill="#1A1A1A"/>
<rect x="444" y="202" width="6" height="6" transform="rotate(90 444 202)" fill="#1A1A1A"/>
<rect x="444" y="196" width="6" height="6" transform="rotate(90 444 196)" fill="#1A1A1A"/>
<rect x="468" y="190" width="6" height="6" transform="rotate(90 468 190)" fill="#1A1A1A"/>
<rect x="456" y="208" width="6" height="6" transform="rotate(90 456 208)" fill="#1A1A1A"/>
<rect x="456" y="184" width="6" height="6" transform="rotate(90 456 184)" fill="#1A1A1A"/>
<rect x="456" y="172" width="6" height="6" transform="rotate(90 456 172)" fill="#1A1A1A"/>
<rect x="456" y="214" width="6" height="6" transform="rotate(90 456 214)" fill="#1A1A1A"/>
<rect x="456" y="190" width="6" height="6" transform="rotate(90 456 190)" fill="#1A1A1A"/>
<rect x="444" y="184" width="6" height="6" transform="rotate(90 444 184)" fill="#1A1A1A"/>
<rect x="468" y="196" width="6" height="6" transform="rotate(90 468 196)" fill="#1A1A1A"/>
<rect x="456" y="220" width="6" height="6" transform="rotate(90 456 220)" fill="#1A1A1A"/>
<rect x="456" y="196" width="6" height="6" transform="rotate(90 456 196)" fill="#1A1A1A"/>
<rect x="444" y="190" width="6" height="6" transform="rotate(90 444 190)" fill="#1A1A1A"/>
<rect x="468" y="184" width="6" height="6" transform="rotate(90 468 184)" fill="#1A1A1A"/>
<rect x="548" y="226" width="3.00002" height="548" transform="rotate(90 548 226)" fill="#1A1A1A"/>
<rect x="140" y="112" width="6" height="6" transform="rotate(90 140 112)" fill="#1A1A1A"/>
<rect x="164" y="112" width="6" height="6" transform="rotate(90 164 112)" fill="#1A1A1A"/>
<rect x="164" y="118" width="6" height="6" transform="rotate(90 164 118)" fill="#1A1A1A"/>
<rect x="164" y="124" width="6" height="6" transform="rotate(90 164 124)" fill="#1A1A1A"/>
<rect x="164" y="130" width="6" height="6" transform="rotate(90 164 130)" fill="#1A1A1A"/>
<rect x="164" y="136" width="6" height="6" transform="rotate(90 164 136)" fill="#1A1A1A"/>
<rect x="146" y="112" width="6" height="6" transform="rotate(90 146 112)" fill="#1A1A1A"/>
<rect x="146" y="124" width="6" height="6" transform="rotate(90 146 124)" fill="#1A1A1A"/>
<rect x="146" y="130" width="6" height="6" transform="rotate(90 146 130)" fill="#1A1A1A"/>
<rect x="146" y="136" width="6" height="6" transform="rotate(90 146 136)" fill="#1A1A1A"/>
<rect x="146" y="142" width="6" height="6" transform="rotate(90 146 142)" fill="#1A1A1A"/>
<rect x="146" y="148" width="6" height="6" transform="rotate(90 146 148)" fill="#1A1A1A"/>
<rect x="146" y="154" width="6" height="6" transform="rotate(90 146 154)" fill="#1A1A1A"/>
<rect x="146" y="160" width="6" height="6" transform="rotate(90 146 160)" fill="#1A1A1A"/>
<rect x="140" y="166" width="6" height="6" transform="rotate(90 140 166)" fill="#1A1A1A"/>
<rect x="140" y="172" width="6" height="6" transform="rotate(90 140 172)" fill="#1A1A1A"/>
<rect x="140" y="178" width="6" height="6" transform="rotate(90 140 178)" fill="#1A1A1A"/>
<rect x="140" y="184" width="6" height="6" transform="rotate(90 140 184)" fill="#1A1A1A"/>
<rect x="140" y="190" width="6" height="6" transform="rotate(90 140 190)" fill="#1A1A1A"/>
<rect x="140" y="196" width="6" height="6" transform="rotate(90 140 196)" fill="#1A1A1A"/>
<rect x="140" y="202" width="6" height="6" transform="rotate(90 140 202)" fill="#1A1A1A"/>
<rect x="164" y="148" width="6" height="6" transform="rotate(90 164 148)" fill="#1A1A1A"/>
<rect x="170" y="112" width="6" height="6" transform="rotate(90 170 112)" fill="#1A1A1A"/>
<rect x="170" y="118" width="6" height="6" transform="rotate(90 170 118)" fill="#1A1A1A"/>
<rect x="170" y="124" width="6" height="6" transform="rotate(90 170 124)" fill="#1A1A1A"/>
<rect x="170" y="130" width="6" height="6" transform="rotate(90 170 130)" fill="#1A1A1A"/>
<rect x="170" y="136" width="6" height="6" transform="rotate(90 170 136)" fill="#1A1A1A"/>
<rect x="152" y="112" width="6" height="6" transform="rotate(90 152 112)" fill="#1A1A1A"/>
<rect x="152" y="118" width="6" height="6" transform="rotate(90 152 118)" fill="#1A1A1A"/>
<rect x="152" y="124" width="6" height="6" transform="rotate(90 152 124)" fill="#1A1A1A"/>
<rect x="152" y="130" width="6" height="6" transform="rotate(90 152 130)" fill="#1A1A1A"/>
<rect x="152" y="136" width="6" height="6" transform="rotate(90 152 136)" fill="#1A1A1A"/>
<rect x="152" y="142" width="6" height="6" transform="rotate(90 152 142)" fill="#1A1A1A"/>
<rect x="152" y="148" width="6" height="6" transform="rotate(90 152 148)" fill="#1A1A1A"/>
<rect x="152" y="154" width="6" height="6" transform="rotate(90 152 154)" fill="#1A1A1A"/>
<rect x="152" y="160" width="6" height="6" transform="rotate(90 152 160)" fill="#1A1A1A"/>
<rect x="146" y="166" width="6" height="6" transform="rotate(90 146 166)" fill="#1A1A1A"/>
<rect x="146" y="172" width="6" height="6" transform="rotate(90 146 172)" fill="#1A1A1A"/>
<rect x="146" y="178" width="6" height="6" transform="rotate(90 146 178)" fill="#1A1A1A"/>
<rect x="146" y="184" width="6" height="6" transform="rotate(90 146 184)" fill="#1A1A1A"/>
<rect x="146" y="190" width="6" height="6" transform="rotate(90 146 190)" fill="#1A1A1A"/>
<rect x="146" y="196" width="6" height="6" transform="rotate(90 146 196)" fill="#1A1A1A"/>
<rect x="152" y="166" width="6" height="6" transform="rotate(90 152 166)" fill="#1A1A1A"/>
<rect x="152" y="172" width="6" height="6" transform="rotate(90 152 172)" fill="#1A1A1A"/>
<rect x="152" y="178" width="6" height="6" transform="rotate(90 152 178)" fill="#1A1A1A"/>
<rect x="152" y="184" width="6" height="6" transform="rotate(90 152 184)" fill="#1A1A1A"/>
<rect x="158" y="166" width="6" height="6" transform="rotate(90 158 166)" fill="#1A1A1A"/>
<rect x="164" y="166" width="6" height="6" transform="rotate(90 164 166)" fill="#1A1A1A"/>
<rect x="164" y="172" width="6" height="6" transform="rotate(90 164 172)" fill="#1A1A1A"/>
<rect x="170" y="148" width="6" height="6" transform="rotate(90 170 148)" fill="#1A1A1A"/>
<rect x="176" y="112" width="6" height="6" transform="rotate(90 176 112)" fill="#1A1A1A"/>
<rect x="176" y="118" width="6" height="6" transform="rotate(90 176 118)" fill="#1A1A1A"/>
<rect x="176" y="124" width="6" height="6" transform="rotate(90 176 124)" fill="#1A1A1A"/>
<rect x="176" y="130" width="6" height="6" transform="rotate(90 176 130)" fill="#1A1A1A"/>
<rect x="176" y="136" width="6" height="6" transform="rotate(90 176 136)" fill="#1A1A1A"/>
<rect x="182" y="118" width="6" height="6" transform="rotate(90 182 118)" fill="#1A1A1A"/>
<rect x="182" y="124" width="6" height="6" transform="rotate(90 182 124)" fill="#1A1A1A"/>
<rect x="182" y="130" width="6" height="6" transform="rotate(90 182 130)" fill="#1A1A1A"/>
<rect x="182" y="136" width="6" height="6" transform="rotate(90 182 136)" fill="#1A1A1A"/>
<rect x="158" y="112" width="6" height="6" transform="rotate(90 158 112)" fill="#1A1A1A"/>
<rect x="158" y="118" width="6" height="6" transform="rotate(90 158 118)" fill="#1A1A1A"/>
<rect x="158" y="124" width="6" height="6" transform="rotate(90 158 124)" fill="#1A1A1A"/>
<rect x="158" y="130" width="6" height="6" transform="rotate(90 158 130)" fill="#1A1A1A"/>
<rect x="158" y="136" width="6" height="6" transform="rotate(90 158 136)" fill="#1A1A1A"/>
<rect x="158" y="142" width="6" height="6" transform="rotate(90 158 142)" fill="#1A1A1A"/>
<rect x="158" y="148" width="6" height="6" transform="rotate(90 158 148)" fill="#1A1A1A"/>
<rect x="176" y="148" width="6" height="6" transform="rotate(90 176 148)" fill="#1A1A1A"/>
<rect x="134" y="118" width="6" height="6" transform="rotate(90 134 118)" fill="#1A1A1A"/>
<rect x="134" y="124" width="6" height="6" transform="rotate(90 134 124)" fill="#1A1A1A"/>
<rect x="134" y="130" width="6" height="6" transform="rotate(90 134 130)" fill="#1A1A1A"/>
<rect x="134" y="136" width="6" height="6" transform="rotate(90 134 136)" fill="#1A1A1A"/>
<rect x="134" y="142" width="6" height="6" transform="rotate(90 134 142)" fill="#1A1A1A"/>
<rect x="134" y="148" width="6" height="6" transform="rotate(90 134 148)" fill="#1A1A1A"/>
<rect x="134" y="154" width="6" height="6" transform="rotate(90 134 154)" fill="#1A1A1A"/>
<rect x="134" y="160" width="6" height="6" transform="rotate(90 134 160)" fill="#1A1A1A"/>
<rect x="128" y="166" width="6" height="6" transform="rotate(90 128 166)" fill="#1A1A1A"/>
<rect x="128" y="172" width="6" height="6" transform="rotate(90 128 172)" fill="#1A1A1A"/>
<rect x="128" y="178" width="6" height="6" transform="rotate(90 128 178)" fill="#1A1A1A"/>
<rect x="128" y="184" width="6" height="6" transform="rotate(90 128 184)" fill="#1A1A1A"/>
<rect x="128" y="190" width="6" height="6" transform="rotate(90 128 190)" fill="#1A1A1A"/>
<rect x="128" y="196" width="6" height="6" transform="rotate(90 128 196)" fill="#1A1A1A"/>
<rect x="128" y="202" width="6" height="6" transform="rotate(90 128 202)" fill="#1A1A1A"/>
<rect x="128" y="208" width="6" height="6" transform="rotate(90 128 208)" fill="#1A1A1A"/>
<rect x="98" y="178" width="6" height="6" transform="rotate(90 98 178)" fill="#1A1A1A"/>
<rect x="98" y="184" width="6" height="6" transform="rotate(90 98 184)" fill="#1A1A1A"/>
<rect x="98" y="190" width="6" height="6" transform="rotate(90 98 190)" fill="#1A1A1A"/>
<rect x="98" y="196" width="6" height="6" transform="rotate(90 98 196)" fill="#1A1A1A"/>
<rect x="98" y="202" width="6" height="6" transform="rotate(90 98 202)" fill="#1A1A1A"/>
<rect x="128" y="154" width="6" height="6" transform="rotate(90 128 154)" fill="#1A1A1A"/>
<rect x="128" y="160" width="6" height="6" transform="rotate(90 128 160)" fill="#1A1A1A"/>
<rect x="122" y="166" width="6" height="6" transform="rotate(90 122 166)" fill="#1A1A1A"/>
<rect x="122" y="172" width="6" height="6" transform="rotate(90 122 172)" fill="#1A1A1A"/>
<rect x="122" y="178" width="6" height="6" transform="rotate(90 122 178)" fill="#1A1A1A"/>
<rect x="122" y="184" width="6" height="6" transform="rotate(90 122 184)" fill="#1A1A1A"/>
<rect x="122" y="190" width="6" height="6" transform="rotate(90 122 190)" fill="#1A1A1A"/>
<rect x="122" y="196" width="6" height="6" transform="rotate(90 122 196)" fill="#1A1A1A"/>
<rect x="122" y="202" width="6" height="6" transform="rotate(90 122 202)" fill="#1A1A1A"/>
<rect x="122" y="208" width="6" height="6" transform="rotate(90 122 208)" fill="#1A1A1A"/>
<rect x="92" y="178" width="6" height="6" transform="rotate(90 92 178)" fill="#1A1A1A"/>
<rect x="92" y="184" width="6" height="6" transform="rotate(90 92 184)" fill="#1A1A1A"/>
<rect x="92" y="190" width="6" height="6" transform="rotate(90 92 190)" fill="#1A1A1A"/>
<rect x="92" y="196" width="6" height="6" transform="rotate(90 92 196)" fill="#1A1A1A"/>
<rect x="92" y="172" width="6" height="6" transform="rotate(90 92 172)" fill="#1A1A1A"/>
<rect x="122" y="160" width="6" height="6" transform="rotate(90 122 160)" fill="#1A1A1A"/>
<rect x="116" y="166" width="6" height="6" transform="rotate(90 116 166)" fill="#1A1A1A"/>
<rect x="116" y="172" width="6" height="6" transform="rotate(90 116 172)" fill="#1A1A1A"/>
<rect x="116" y="178" width="6" height="6" transform="rotate(90 116 178)" fill="#1A1A1A"/>
<rect x="116" y="184" width="6" height="6" transform="rotate(90 116 184)" fill="#1A1A1A"/>
<rect x="116" y="190" width="6" height="6" transform="rotate(90 116 190)" fill="#1A1A1A"/>
<rect x="116" y="196" width="6" height="6" transform="rotate(90 116 196)" fill="#1A1A1A"/>
<rect x="116" y="202" width="6" height="6" transform="rotate(90 116 202)" fill="#1A1A1A"/>
<rect x="116" y="208" width="6" height="6" transform="rotate(90 116 208)" fill="#1A1A1A"/>
<rect x="116" y="214" width="6" height="6" transform="rotate(90 116 214)" fill="#1A1A1A"/>
<rect x="86" y="178" width="6" height="6" transform="rotate(90 86 178)" fill="#1A1A1A"/>
<rect x="86" y="184" width="6" height="6" transform="rotate(90 86 184)" fill="#1A1A1A"/>
<rect x="86" y="190" width="6" height="6" transform="rotate(90 86 190)" fill="#1A1A1A"/>
<rect x="86" y="172" width="6" height="6" transform="rotate(90 86 172)" fill="#1A1A1A"/>
<rect x="86" y="166" width="6" height="6" transform="rotate(90 86 166)" fill="#1A1A1A"/>
<rect x="110" y="172" width="6" height="6" transform="rotate(90 110 172)" fill="#1A1A1A"/>
<rect x="110" y="178" width="6" height="6" transform="rotate(90 110 178)" fill="#1A1A1A"/>
<rect x="110" y="184" width="6" height="6" transform="rotate(90 110 184)" fill="#1A1A1A"/>
<rect x="110" y="190" width="6" height="6" transform="rotate(90 110 190)" fill="#1A1A1A"/>
<rect x="110" y="196" width="6" height="6" transform="rotate(90 110 196)" fill="#1A1A1A"/>
<rect x="110" y="202" width="6" height="6" transform="rotate(90 110 202)" fill="#1A1A1A"/>
<rect x="110" y="208" width="6" height="6" transform="rotate(90 110 208)" fill="#1A1A1A"/>
<rect x="110" y="214" width="6" height="6" transform="rotate(90 110 214)" fill="#1A1A1A"/>
<rect x="110" y="220" width="6" height="6" transform="rotate(90 110 220)" fill="#1A1A1A"/>
<rect x="134" y="214" width="6" height="6" transform="rotate(90 134 214)" fill="#1A1A1A"/>
<rect x="128" y="214" width="6" height="6" transform="rotate(90 128 214)" fill="#1A1A1A"/>
<rect x="80" y="178" width="6" height="6" transform="rotate(90 80 178)" fill="#1A1A1A"/>
<rect x="80" y="184" width="6" height="6" transform="rotate(90 80 184)" fill="#1A1A1A"/>
<rect x="80" y="172" width="6" height="6" transform="rotate(90 80 172)" fill="#1A1A1A"/>
<rect x="80" y="166" width="6" height="6" transform="rotate(90 80 166)" fill="#1A1A1A"/>
<rect x="80" y="160" width="6" height="6" transform="rotate(90 80 160)" fill="#1A1A1A"/>
<rect x="80" y="154" width="6" height="6" transform="rotate(90 80 154)" fill="#1A1A1A"/>
<rect x="140" y="118" width="6" height="6" transform="rotate(90 140 118)" fill="#1A1A1A"/>
<rect x="140" y="124" width="6" height="6" transform="rotate(90 140 124)" fill="#1A1A1A"/>
<rect x="140" y="130" width="6" height="6" transform="rotate(90 140 130)" fill="#1A1A1A"/>
<rect x="140" y="136" width="6" height="6" transform="rotate(90 140 136)" fill="#1A1A1A"/>
<rect x="140" y="142" width="6" height="6" transform="rotate(90 140 142)" fill="#1A1A1A"/>
<rect x="140" y="148" width="6" height="6" transform="rotate(90 140 148)" fill="#1A1A1A"/>
<rect x="140" y="154" width="6" height="6" transform="rotate(90 140 154)" fill="#1A1A1A"/>
<rect x="140" y="160" width="6" height="6" transform="rotate(90 140 160)" fill="#1A1A1A"/>
<rect x="134" y="166" width="6" height="6" transform="rotate(90 134 166)" fill="#1A1A1A"/>
<rect x="134" y="172" width="6" height="6" transform="rotate(90 134 172)" fill="#1A1A1A"/>
<rect x="134" y="178" width="6" height="6" transform="rotate(90 134 178)" fill="#1A1A1A"/>
<rect x="134" y="184" width="6" height="6" transform="rotate(90 134 184)" fill="#1A1A1A"/>
<rect x="134" y="190" width="6" height="6" transform="rotate(90 134 190)" fill="#1A1A1A"/>
<rect x="134" y="196" width="6" height="6" transform="rotate(90 134 196)" fill="#1A1A1A"/>
<rect x="134" y="202" width="6" height="6" transform="rotate(90 134 202)" fill="#1A1A1A"/>
<rect x="134" y="208" width="6" height="6" transform="rotate(90 134 208)" fill="#1A1A1A"/>
<rect x="104" y="178" width="6" height="6" transform="rotate(90 104 178)" fill="#1A1A1A"/>
<rect x="104" y="184" width="6" height="6" transform="rotate(90 104 184)" fill="#1A1A1A"/>
<rect x="104" y="190" width="6" height="6" transform="rotate(90 104 190)" fill="#1A1A1A"/>
<rect x="104" y="196" width="6" height="6" transform="rotate(90 104 196)" fill="#1A1A1A"/>
<rect x="104" y="202" width="6" height="6" transform="rotate(90 104 202)" fill="#1A1A1A"/>
<rect x="104" y="208" width="6" height="6" transform="rotate(90 104 208)" fill="#1A1A1A"/>
<rect x="104" y="214" width="6" height="6" transform="rotate(90 104 214)" fill="#1A1A1A"/>
<rect x="104" y="220" width="6" height="6" transform="rotate(90 104 220)" fill="#1A1A1A"/>
<rect x="134" y="220" width="6" height="6" transform="rotate(90 134 220)" fill="#1A1A1A"/>
<rect x="104" y="226" width="6" height="6" transform="rotate(90 104 226)" fill="#1A1A1A"/>
<rect x="134" y="226" width="6" height="6" transform="rotate(90 134 226)" fill="#1A1A1A"/>
<rect x="104" y="232" width="6" height="6" transform="rotate(90 104 232)" fill="#1A1A1A"/>
<rect x="134" y="232" width="6" height="6" transform="rotate(90 134 232)" fill="#1A1A1A"/>
<rect x="110" y="232" width="6" height="6" transform="rotate(90 110 232)" fill="#1A1A1A"/>
<rect x="140" y="232" width="6" height="6" transform="rotate(90 140 232)" fill="#1A1A1A"/>
</svg>
